<svg version="1.0" xmlns="http://www.w3.org/2000/svg" width="2000.000000pt" height="2000.000000pt" viewBox="0 0 2000.000000 2000.000000" preserveAspectRatio="xMidYMid meet"> 	<g transform="translate(0.000000,2000.000000) scale(0.100000,-0.100000)" fill="#000000" stroke="none"> 		<path d="M8855 18084 c-336 -25 -478 -42 -705 -79 -881 -148 -1696 -488 -2375 -995 -408 -303 -813 -709 -1132 -1135 -560 -747 -963 -1633 -1192 -2617 -35 -153 -41 -169 -88 -239 -87 -128 -265 -416 -380 -614 -662 -1137 -969 -2066 -913 -2760 33 -424 170 -742 439 -1025 41 -43 10 2 -45 65 -276 319 -411 775 -374 1270 38 522 194 1024 538 1736 74 153 93 185 111 186 20 2 19 -1 -10 -26 -23 -21 -28 -30 -19 -36 8 -5 11 -4 6 3 -3 6 2 16 13 22 29 15 33 1 41 -124 4 -71 11 -111 18 -114 8 -2 12 -31 12 -83 0 -51 4 -79 11 -79 8 0 9 -24 4 -80 -6 -70 -5 -80 9 -80 12 0 16 -10 16 -42 0 -77 13 -178 21 -172 5 3 9 -1 9 -9 0 -8 -6 -17 -13 -20 -7 -2 -13 -17 -15 -31 -2 -25 0 -26 14 -12 19 20 31 21 15 2 -7 -8 -13 -22 -15 -32 -2 -11 -18 -55 -36 -98 -138 -348 -222 -730 -233 -1066 -6 -175 16 -456 34 -444 5 3 9 -3 9 -13 0 -12 3 -14 8 -6 6 9 25 7 82 -8 41 -12 98 -25 125 -29 60 -11 103 -22 174 -46 42 -14 49 -19 35 -25 -15 -6 -13 -8 11 -10 17 -1 38 -3 48 -2 9 0 17 -4 17 -9 0 -5 4 -7 8 -4 5 3 9 -14 11 -37 6 -117 52 -342 73 -362 8 -7 9 -4 5 8 -4 10 -17 64 -29 120 -20 90 -22 131 -22 352 -1 269 13 388 69 591 30 109 106 324 116 324 3 0 9 -21 13 -47 31 -228 186 -780 296 -1053 32 -79 40 -115 48 -210 l10 -115 -3 170 c-3 166 9 715 20 865 3 41 10 147 16 235 5 88 19 252 30 365 10 113 22 238 26 278 3 39 9 72 12 72 4 0 5 16 3 36 -4 33 -2 35 19 32 16 -2 24 -9 23 -20 -1 -10 2 -16 6 -13 11 7 109 -43 151 -76 20 -16 42 -29 48 -29 6 0 11 -12 11 -27 0 -22 2 -25 10 -13 6 10 10 11 10 3 0 -7 11 -13 25 -13 23 0 25 -3 25 -50 0 -27 -4 -50 -9 -50 -5 0 -7 -8 -4 -18 5 -21 -11 -172 -67 -622 -43 -340 -72 -636 -65 -669 6 -32 9 -35 92 -77 43 -21 84 -45 91 -51 7 -7 22 -13 32 -13 10 0 22 -5 25 -10 4 -6 31 -25 61 -41 30 -17 52 -35 49 -39 -3 -5 5 -12 17 -15 13 -4 31 -14 41 -23 9 -8 17 -12 17 -7 0 4 11 -3 24 -16 18 -19 24 -39 29 -95 23 -251 111 -596 201 -785 14 -30 25 -58 25 -63 -1 -5 3 -12 8 -15 5 -3 15 -19 22 -36 18 -37 17 -35 26 -62 4 -13 12 -23 17 -23 5 0 7 -4 4 -9 -3 -5 1 -11 9 -15 8 -3 15 -10 15 -15 0 -6 23 -50 52 -98 29 -48 51 -91 50 -95 -1 -5 2 -8 7 -8 9 0 75 -97 76 -111 0 -4 12 -19 27 -34 16 -15 28 -31 28 -35 0 -4 18 -30 40 -56 22 -27 40 -52 40 -55 0 -4 -18 -10 -40 -14 -51 -9 -63 -26 -13 -19 64 9 63 8 63 85 0 138 52 396 91 449 9 12 10 11 4 -5 -4 -11 -10 -26 -13 -34 -3 -9 -1 -12 6 -7 7 4 12 3 12 -3 0 -5 -4 -13 -10 -16 -5 -3 -10 -11 -10 -16 0 -6 7 -3 16 5 20 21 23 20 17 -5 -5 -19 12 -92 28 -114 3 -5 14 -37 24 -70 9 -33 23 -71 30 -85 8 -14 17 -46 20 -72 3 -27 12 -49 18 -49 7 -1 -4 -5 -23 -9 -33 -7 -32 -7 16 -9 29 0 71 -10 95 -20 24 -11 47 -17 51 -15 4 3 8 0 8 -5 0 -6 5 -11 11 -11 6 0 24 -11 41 -25 16 -14 25 -25 20 -25 -14 0 -24 -62 -12 -70 8 -5 6 -45 -7 -131 -9 -68 -18 -151 -18 -185 0 -58 -2 -63 -44 -107 l-45 -47 -192 1 c-186 1 -192 0 -230 -23 -38 -24 -38 -25 -35 -84 1 -32 7 -60 12 -62 19 -7 8 -21 -33 -41 -51 -25 -31 -27 49 -6 79 22 253 28 331 13 34 -6 62 -15 62 -19 0 -4 8 -10 18 -13 25 -8 49 -92 33 -118 -6 -10 -9 -23 -5 -29 3 -6 -2 -19 -11 -29 -10 -12 -15 -28 -12 -40 3 -12 1 -35 -5 -52 -8 -22 -8 -32 1 -37 9 -6 8 -11 -4 -21 -8 -7 -15 -28 -15 -46 0 -19 -4 -34 -10 -34 -5 0 -10 -6 -10 -13 0 -18 -60 -82 -165 -175 -49 -43 -115 -105 -145 -137 -30 -32 -125 -128 -210 -214 -101 -101 -154 -162 -152 -173 3 -14 8 -15 28 -8 26 10 32 2 12 -18 -10 -10 -10 -15 1 -21 7 -5 11 -13 7 -19 -3 -6 -1 -23 4 -38 17 -44 -16 -141 -108 -319 -28 -55 -177 -244 -198 -252 -8 -3 -14 -11 -14 -18 0 -15 -28 -28 -42 -19 -5 3 -17 -1 -26 -9 -9 -8 -34 -17 -54 -21 -21 -4 -38 -11 -38 -15 0 -13 -27 -21 -87 -27 -30 -2 -75 -12 -100 -20 -25 -9 -49 -12 -52 -7 -3 4 -33 9 -66 10 -102 4 -145 13 -145 29 0 11 -6 13 -20 9 -16 -5 -19 -3 -13 12 4 10 15 27 25 38 18 19 18 20 -2 27 -24 9 -26 21 -5 38 18 15 20 -1 3 -18 -8 -8 -8 -12 -1 -12 14 0 24 26 17 44 -8 21 105 206 181 297 l22 27 -19 88 c-10 49 -18 126 -18 171 0 81 27 249 50 308 8 22 8 27 0 19 -46 -46 -77 -383 -47 -512 l15 -64 -58 -76 c-87 -117 -156 -233 -231 -387 -259 -535 -275 -1044 -48 -1497 170 -339 423 -585 784 -760 l109 -53 -144 -12 c-429 -36 -705 -82 -787 -133 -59 -36 -36 -64 83 -99 587 -175 3118 -228 4514 -94 141 13 259 14 815 8 358 -4 1071 -11 1585 -15 668 -6 995 -13 1145 -24 419 -30 802 -40 1540 -40 1211 0 2096 53 2506 150 197 47 221 93 74 142 -65 22 -324 67 -445 78 -41 4 -80 9 -87 13 -7 4 32 26 88 50 204 88 404 226 560 387 234 241 387 553 430 871 17 129 6 412 -21 538 -63 295 -213 623 -399 871 l-60 81 14 69 c8 38 15 115 15 170 0 284 -106 528 -357 823 -43 51 -53 69 -53 99 0 136 -95 530 -130 540 -10 2 -11 1 -4 -5 12 -9 34 -89 26 -97 -7 -7 -62 26 -62 37 0 5 -7 7 -15 3 -9 -3 -15 0 -15 10 0 8 -8 17 -17 21 -24 8 -93 75 -93 90 0 6 -9 14 -20 18 -11 3 -28 17 -39 31 -10 13 -28 24 -39 24 -22 0 -35 21 -40 68 -1 6 -9 12 -17 12 -9 0 -12 -6 -8 -17 5 -14 1 -13 -16 4 -11 12 -21 29 -21 37 0 8 -3 16 -7 18 -15 6 -62 83 -94 151 -17 38 -38 71 -45 74 -8 3 -14 18 -14 33 0 22 4 27 23 25 12 -1 32 -3 45 -4 15 -1 21 -5 16 -13 -4 -7 -3 -8 5 -4 6 4 39 -6 74 -23 58 -28 60 -29 32 -6 -33 28 -132 70 -187 80 l-35 7 -6 126 c-6 131 -23 233 -57 338 l-20 60 44 85 c81 152 192 457 236 647 7 28 15 54 20 57 4 2 6 19 4 36 -3 26 -1 29 10 20 10 -8 16 -9 21 -1 3 5 1 10 -4 10 -6 0 -11 8 -10 18 0 10 3 12 6 5 2 -7 9 -13 14 -13 6 0 8 4 5 9 -3 5 3 20 15 35 11 14 22 35 24 47 3 12 15 33 27 46 13 14 22 33 20 43 -2 11 5 21 18 25 11 4 32 24 47 46 14 21 29 39 34 39 4 0 16 14 26 30 9 16 23 30 30 30 7 0 13 10 14 23 0 21 1 21 9 2 8 -18 9 -18 9 -2 1 10 5 16 9 13 5 -3 14 16 20 42 14 56 48 388 57 557 7 136 21 223 40 241 6 7 32 14 58 17 53 6 67 13 67 34 0 11 7 14 24 11 18 -4 22 -1 19 13 -4 14 3 18 41 21 33 2 45 0 42 -9 -3 -6 -1 -13 3 -15 5 -2 16 -93 25 -203 27 -329 29 -351 34 -336 4 13 -14 418 -27 598 -5 69 -3 97 5 104 9 8 14 3 17 -18 l4 -28 2 30 c1 18 4 25 9 18 9 -15 162 -26 162 -13 0 18 18 10 23 -10 4 -14 14 -20 35 -20 27 0 29 2 26 32 -5 36 5 33 12 -5 5 -32 -35 -243 -87 -451 -39 -156 -47 -224 -14 -109 61 207 137 556 166 756 7 48 15 90 19 92 4 3 30 -46 58 -108 112 -248 175 -438 212 -641 11 -61 24 -129 29 -151 8 -36 9 -35 5 15 -3 30 -12 102 -20 159 -12 77 -13 106 -4 115 8 8 9 6 4 -8 -5 -13 -4 -17 4 -12 6 4 30 1 52 -5 28 -8 37 -15 28 -21 -9 -5 -8 -8 6 -8 22 0 171 -48 208 -66 14 -8 33 -14 41 -14 23 0 177 -67 198 -86 10 -9 25 -14 33 -11 9 4 17 -1 20 -11 3 -9 3 26 0 78 -5 97 -30 239 -64 370 -13 50 -16 78 -9 86 6 8 6 14 0 18 -5 3 -12 1 -14 -4 -3 -6 -4 -5 -3 2 4 22 30 14 43 -12 9 -18 13 -20 13 -8 0 19 25 14 48 -9 9 -9 30 -11 73 -6 51 5 59 4 59 -11 0 -10 8 -16 22 -16 12 0 30 -7 40 -17 17 -15 18 -15 18 0 0 20 4 21 47 5 18 -7 33 -18 33 -25 0 -9 14 -13 41 -13 35 0 41 -3 37 -18 -4 -15 -1 -18 18 -14 15 3 24 0 24 -8 0 -7 11 -23 24 -35 l24 -22 -2 32 c-3 32 18 47 22 16 3 -29 9 -56 17 -74 16 -39 -5 -404 -31 -517 -3 -16 -2 -21 4 -15 15 16 32 120 44 277 32 403 -61 900 -270 1443 -250 652 -659 1399 -1198 2191 l-106 156 -58 201 c-276 958 -704 1777 -1306 2502 -221 266 -611 636 -909 860 -786 591 -1767 957 -2845 1060 -327 31 -859 30 -1120 -3 -30 -4 -104 -1 -165 5 -107 12 -729 25 -830 17z m-391 -72 c3 -5 -1 -9 -9 -9 -8 0 -12 4 -9 9 3 4 7 8 9 8 2 0 6 -4 9 -8z m-18 -36 c12 -11 43 -37 68 -56 31 -23 46 -42 46 -57 0 -21 5 -23 51 -23 40 0 57 -5 74 -22 13 -13 44 -39 69 -58 31 -23 46 -42 46 -57 0 -20 5 -23 40 -23 l40 0 0 -40 0 -40 40 0 c36 0 40 -2 40 -25 0 -22 -4 -25 -40 -25 -32 0 -40 -4 -40 -18 0 -14 -7 -18 -33 -17 -18 1 -39 5 -45 9 -6 3 -21 4 -34 1 -13 -3 -77 -7 -143 -10 -66 -2 -136 -7 -155 -9 -19 -3 -60 -8 -90 -11 -30 -3 -71 -10 -90 -16 -19 -6 -150 -40 -290 -76 -321 -82 -461 -118 -480 -125 -8 -3 -58 -19 -110 -36 -192 -62 -381 -132 -439 -162 -9 -5 -41 -20 -71 -33 -143 -66 -365 -181 -391 -203 -8 -8 -18 -14 -22 -14 -6 0 -126 -70 -142 -83 -5 -4 -49 -34 -96 -65 -116 -76 -243 -164 -249 -172 -3 -3 -23 -19 -45 -35 -22 -17 -42 -32 -45 -35 -3 -4 -23 -19 -45 -36 -22 -16 -45 -33 -51 -39 -6 -5 -35 -30 -65 -55 -224 -189 -458 -419 -600 -591 -231 -279 -305 -376 -415 -544 -26 -38 -57 -86 -70 -106 -13 -19 -24 -39 -24 -43 0 -4 -11 -22 -25 -40 -14 -18 -25 -40 -25 -49 0 -9 -5 -19 -11 -22 -10 -7 -28 -45 -34 -75 -2 -8 -4 -16 -5 -17 -2 -2 -3 -6 -5 -10 -1 -5 -7 -21 -13 -36 -7 -16 -10 -33 -6 -38 3 -5 -1 -9 -8 -10 -10 0 -10 -2 0 -6 6 -2 12 -16 12 -30 0 -16 7 -27 20 -30 20 -5 28 -23 10 -23 -5 0 -10 -4 -10 -10 0 -5 9 -10 20 -10 21 0 60 -33 60 -51 0 -6 7 -9 15 -6 8 4 17 2 20 -3 3 -5 17 -7 30 -4 25 4 25 4 8 -14 -174 -180 -399 -487 -548 -746 -271 -474 -469 -1070 -554 -1676 -33 -235 -51 -424 -40 -436 7 -8 5 -14 -3 -17 -9 -4 -10 -8 -2 -14 7 -4 14 -17 16 -28 2 -11 9 -19 16 -18 6 2 9 -4 6 -11 -3 -9 3 -17 15 -21 12 -3 21 -12 21 -20 0 -12 27 -30 42 -27 4 1 5 -5 2 -13 -4 -10 0 -15 14 -15 19 0 72 -52 72 -71 0 -5 7 -9 15 -9 8 0 15 -4 15 -10 0 -24 -35 -4 -44 26 -4 12 -15 29 -26 39 -18 16 -18 16 -12 -7 9 -35 81 -108 100 -101 13 4 14 3 3 -5 -11 -8 -9 -14 9 -32 20 -20 22 -20 34 -4 12 16 13 16 19 0 4 -11 3 -15 -4 -10 -8 4 -9 -1 -4 -15 4 -13 1 -29 -7 -38 -10 -13 -10 -15 0 -9 9 6 11 2 8 -16 -5 -22 -33 -252 -56 -453 -16 -151 -48 -530 -60 -715 -6 -96 -12 -204 -15 -240 -2 -36 -7 -226 -11 -423 l-7 -358 -24 58 c-89 216 -204 619 -268 938 -299 1484 -119 3148 490 4519 775 1745 2090 2898 3790 3320 188 47 433 95 510 101 11 1 27 4 35 8 53 22 177 12 206 -17z m3728 -2149 c30 -40 55 -128 49 -177 -8 -66 -32 -135 -70 -199 -174 -292 -521 -478 -637 -341 -33 40 -40 83 -27 170 28 176 92 274 247 379 62 42 379 201 401 201 7 0 23 -15 37 -33z m-3869 -382 c25 -3 52 -10 59 -17 8 -7 24 -20 36 -28 12 -8 28 -21 36 -27 7 -7 29 -13 48 -13 20 0 44 -4 54 -9 9 -5 36 -17 59 -26 23 -10 44 -24 47 -31 3 -8 11 -14 18 -14 17 -1 60 -69 52 -82 -4 -6 -2 -8 4 -5 6 5 13 -9 18 -35 8 -42 9 -51 12 -116 1 -18 6 -31 11 -27 5 3 12 -5 16 -17 7 -25 22 -62 36 -90 5 -10 9 -26 9 -37 0 -11 6 -26 14 -33 7 -8 17 -25 21 -38 4 -14 15 -39 25 -55 10 -17 25 -66 34 -110 13 -74 30 -146 59 -252 6 -23 15 -39 19 -37 4 3 8 -2 8 -10 0 -9 -4 -16 -10 -16 -6 0 -10 -33 -10 -80 0 -67 3 -80 16 -80 11 0 14 -5 9 -17 -13 -31 -18 -160 -6 -143 16 22 13 -2 -4 -36 -8 -17 -16 -72 -19 -134 -3 -58 -10 -134 -16 -170 -6 -36 -13 -81 -16 -100 -3 -19 -8 -37 -13 -40 -13 -9 -31 -64 -33 -102 -1 -20 -6 -34 -10 -32 -7 5 -9 -5 -13 -71 -1 -11 -5 -26 -9 -33 -4 -8 -5 -16 -2 -19 3 -3 1 -13 -3 -22 -15 -27 -21 -201 -10 -291 19 -167 28 -220 75 -440 9 -41 32 -127 51 -190 19 -63 43 -144 54 -180 33 -114 76 -230 82 -224 3 4 5 -2 5 -12 -1 -11 9 -41 22 -69 12 -27 29 -66 37 -85 21 -47 112 -231 153 -305 116 -213 298 -474 500 -716 58 -69 117 -140 131 -158 15 -18 46 -53 71 -79 44 -48 83 -102 73 -102 -21 0 -207 80 -322 139 -474 240 -877 625 -1148 1095 l-29 49 120 -7 c65 -4 127 -9 137 -12 29 -9 19 2 -37 39 -61 41 -164 93 -250 127 l-59 24 -42 90 c-169 362 -306 893 -355 1376 -30 296 -38 752 -20 1060 18 299 65 702 111 960 12 63 21 121 22 127 0 9 4 10 13 2 7 -5 33 -12 59 -14z m-1722 -39 c-4 -6 -9 -26 -10 -44 -1 -20 -12 -43 -30 -60 -15 -16 -39 -43 -53 -61 -24 -32 -80 -98 -130 -153 -35 -39 -37 -42 -115 -143 -37 -49 -71 -92 -74 -95 -27 -23 -187 -254 -290 -417 l-52 -83 -2 -92 c-2 -81 -6 -102 -34 -160 -46 -97 -85 -151 -184 -253 -90 -92 -103 -114 -171 -285 -209 -526 -319 -1105 -334 -1760 -5 -212 -3 -297 10 -428 10 -89 14 -167 11 -172 -3 -6 -2 -10 2 -10 5 0 10 -21 11 -47 5 -78 9 -107 20 -133 6 -14 14 -42 17 -64 3 -21 9 -35 12 -32 8 7 63 -91 63 -111 0 -7 7 -13 15 -13 8 0 15 -9 15 -20 0 -11 6 -20 13 -20 6 0 22 -18 34 -40 16 -31 20 -47 13 -70 -7 -24 -4 -34 17 -56 l26 -28 -7 25 c-6 22 -6 23 5 4 7 -11 15 -22 18 -25 15 -13 35 -43 24 -36 -7 4 -13 2 -13 -3 0 -6 4 -11 9 -11 5 0 11 -9 14 -20 4 -17 2 -20 -16 -15 -21 6 -22 6 -3 -9 11 -9 25 -16 32 -16 6 0 15 -7 18 -16 5 -14 4 -15 -9 -4 -12 10 -15 10 -15 -3 0 -8 9 -17 21 -20 15 -4 19 -11 15 -25 -4 -10 4 -37 17 -63 13 -24 24 -54 24 -67 1 -13 8 -31 15 -39 7 -9 12 -24 10 -35 -2 -10 1 -18 6 -18 5 0 12 -30 15 -67 3 -38 8 -90 11 -118 3 -32 2 -44 -4 -35 -8 13 -10 12 -10 -2 0 -10 6 -18 14 -18 8 0 16 -7 20 -15 7 -18 -5 -20 -22 -3 -15 15 -16 0 -2 -36 6 -17 6 -26 0 -26 -13 0 -13 -77 0 -82 7 -2 6 -15 -2 -36 -11 -28 -10 -35 2 -43 13 -9 13 -11 -1 -21 -14 -9 -15 -17 -7 -41 7 -19 7 -36 0 -51 -11 -25 -4 -126 9 -126 5 0 9 -4 9 -10 0 -5 -9 -10 -20 -10 -11 0 -20 -7 -20 -15 0 -8 -4 -15 -10 -15 -5 0 -10 -7 -10 -15 0 -8 4 -15 9 -15 4 0 8 -18 8 -41 0 -28 -3 -39 -12 -35 -10 3 -13 -19 -11 -99 0 -57 -3 -101 -8 -98 -4 3 -5 -5 0 -18 4 -13 7 -33 6 -44 -1 -11 12 -70 28 -131 40 -154 46 -225 25 -297 -9 -32 -22 -60 -28 -61 -69 -19 -97 -31 -97 -43 0 -7 -7 -13 -15 -13 -8 0 -15 -4 -15 -10 0 -5 -11 -12 -25 -16 -14 -3 -25 -12 -25 -20 0 -8 -5 -14 -10 -14 -6 0 -8 -11 -4 -25 6 -23 3 -25 -24 -25 -18 0 -32 -6 -36 -16 -10 -25 -7 -34 9 -34 10 0 15 -10 15 -30 0 -19 9 -38 26 -54 19 -17 25 -31 21 -46 -6 -22 -3 -24 46 -34 17 -4 27 -13 27 -24 -1 -15 -2 -15 -15 2 -10 13 -22 17 -40 14 -20 -4 -29 0 -40 21 -8 14 -14 22 -15 16 0 -5 9 -23 19 -38 13 -20 20 -25 24 -15 3 8 6 6 7 -7 1 -20 2 -20 9 -1 7 18 9 17 26 -12 10 -17 23 -28 28 -25 6 3 7 1 3 -5 -3 -6 -2 -13 4 -17 5 -3 10 -11 10 -16 0 -6 -5 -7 -12 -3 -7 4 -8 3 -4 -5 4 -6 11 -9 16 -6 5 3 11 1 15 -5 3 -5 -2 -10 -12 -10 -20 0 -193 198 -321 365 -340 444 -632 1026 -796 1585 -99 340 -177 757 -201 1080 -4 47 -9 96 -11 110 -2 14 -7 138 -11 275 -22 894 169 1925 524 2820 90 228 272 607 286 598 6 -4 8 0 5 8 -7 18 14 48 44 63 17 9 22 20 21 41 -2 28 -2 28 15 7 l16 -20 16 25 c8 14 31 31 50 37 19 7 34 17 33 23 -1 6 12 15 30 19 17 3 41 13 52 20 11 8 32 14 47 14 17 0 28 5 28 13 0 14 40 37 65 37 8 0 15 4 15 10 0 5 17 12 38 16 20 4 39 10 42 14 6 9 125 50 145 50 8 0 15 5 15 10 0 6 12 10 28 10 15 0 49 11 76 25 27 14 60 25 72 25 13 0 35 5 51 11 15 6 59 15 97 19 38 4 72 13 76 20 4 6 54 18 111 25 58 8 125 19 149 24 25 6 102 11 173 11 75 0 127 4 127 10 0 5 7 7 15 4 8 -4 12 -11 8 -18z m2651 -341 c-7 -18 12 -20 20 -2 4 6 4 2 2 -11 -2 -12 0 -20 4 -17 5 3 24 -1 42 -8 18 -8 39 -12 46 -10 6 3 12 -2 12 -11 0 -11 9 -16 30 -16 17 0 38 -4 48 -9 9 -5 32 -16 50 -23 17 -7 32 -16 32 -20 0 -5 9 -8 20 -8 24 0 140 -50 140 -61 0 -3 24 -14 53 -24 28 -9 61 -25 72 -35 17 -16 106 -38 128 -32 29 8 113 13 133 8 32 -8 61 -67 74 -152 11 -64 14 -603 5 -734 -2 -30 -6 -188 -9 -350 -6 -290 7 -555 44 -895 6 -49 12 -110 14 -135 2 -25 6 -63 9 -85 3 -22 13 -98 22 -170 31 -245 43 -306 132 -675 64 -263 111 -433 195 -695 65 -204 117 -387 117 -421 1 -24 -21 -74 -32 -74 -5 0 -5 -4 -2 -10 16 -26 -123 60 -226 140 -270 209 -506 509 -637 806 -240 545 -446 1435 -526 2269 -26 269 -36 438 -42 730 -6 262 7 713 21 735 9 15 15 12 9 -5z m61 -23 c-3 -3 -11 0 -18 7 -9 10 -8 11 6 5 10 -3 15 -9 12 -12z m-4310 -101 c-3 -6 -11 -11 -17 -11 -6 0 -6 6 2 15 14 17 26 13 15 -4z m-245 -356 c-7 -9 -15 -13 -19 -10 -3 3 1 10 9 15 21 14 24 12 10 -5z m4257 -337 c-3 -7 -5 -2 -5 12 0 14 2 19 5 13 2 -7 2 -19 0 -25z m-2831 -45 c-7 -24 8 -47 27 -40 17 7 44 -23 49 -55 2 -13 11 -24 23 -26 27 -5 55 -37 55 -62 0 -13 7 -20 19 -20 11 0 28 -13 37 -29 10 -17 21 -28 26 -25 4 3 5 -2 2 -10 -4 -11 0 -16 10 -16 9 0 16 -5 16 -11 0 -6 11 -25 25 -43 14 -18 25 -41 25 -51 0 -9 18 -34 40 -55 22 -21 40 -47 40 -59 0 -12 6 -21 15 -21 11 0 15 -12 16 -42 1 -24 4 -56 8 -73 4 -17 -1 -64 -12 -110 -10 -44 -22 -96 -26 -116 -4 -19 -11 -40 -14 -46 -4 -6 -16 -53 -28 -105 -11 -51 -24 -111 -29 -133 -55 -230 -121 -632 -134 -815 -22 -305 -18 -471 20 -860 6 -59 22 -118 40 -145 8 -13 13 -29 12 -36 -2 -8 7 -15 20 -17 12 -2 22 -10 22 -18 0 -8 -4 -12 -10 -9 -5 3 -10 -3 -10 -14 0 -12 5 -21 10 -21 6 0 10 -6 10 -13 0 -7 7 -22 15 -33 14 -18 14 -17 5 10 -11 30 -8 39 13 42 7 1 13 -13 14 -38 0 -22 8 -47 17 -57 19 -20 21 -35 4 -25 -7 5 -8 3 -3 -6 9 -15 10 -21 25 -180 22 -245 93 -742 116 -814 6 -18 5 -19 -8 -9 -12 10 -15 10 -15 -2 0 -8 4 -12 8 -9 10 6 31 -31 22 -39 -3 -4 -1 -12 4 -19 5 -7 11 -31 12 -52 1 -22 4 -44 8 -49 3 -5 -3 -6 -16 -2 -22 7 -30 -9 -8 -19 10 -5 10 -7 0 -12 -18 -8 -16 -35 1 -28 18 7 10 -30 -10 -47 -8 -6 -14 -18 -14 -25 0 -8 -5 -14 -10 -14 -6 0 -5 -9 2 -21 10 -17 10 -23 1 -26 -7 -3 -13 -11 -13 -19 0 -8 -5 -14 -11 -14 -5 0 -7 -4 -4 -10 4 -6 -1 -7 -12 -3 -10 3 -15 3 -11 -2 4 -4 0 -14 -10 -22 -12 -9 -13 -12 -2 -8 11 4 19 -5 28 -27 l12 -33 -20 25 c-16 20 -19 21 -14 5 24 -72 -147 217 -248 419 -373 744 -560 1479 -575 2261 -12 608 68 1118 267 1700 58 167 117 315 127 315 2 0 2 -8 -1 -17z m1406 -195 c16 -7 28 -19 28 -25 0 -7 10 -13 23 -13 36 0 46 -12 88 -101 32 -69 40 -80 45 -61 9 33 21 27 28 -15 7 -43 30 -148 45 -208 6 -22 15 -96 21 -163 6 -68 15 -131 19 -140 5 -10 17 -43 27 -74 10 -31 21 -55 25 -52 4 2 11 -5 14 -17 4 -11 9 -18 13 -15 3 3 17 -7 31 -22 33 -36 85 -62 113 -57 17 4 19 2 10 -7 -17 -17 -15 -28 4 -28 8 0 13 -4 9 -9 -3 -5 -1 -12 5 -16 5 -3 10 0 11 7 0 7 15 -59 33 -147 73 -350 200 -748 306 -954 l19 -38 -77 20 c-57 14 -118 20 -236 22 l-159 3 -54 102 c-265 493 -422 1062 -449 1635 -8 173 3 399 20 391 6 -2 23 -10 38 -18z m8238 -197 c0 -9 -150 -148 -255 -237 -170 -144 -441 -328 -605 -411 -242 -123 -551 -203 -795 -206 -137 -2 -201 12 -241 52 -35 34 -29 81 21 155 122 184 464 406 792 515 190 64 293 80 698 111 204 15 373 28 378 29 4 0 7 -3 7 -8z m-8334 -207 c-30 -21 -45 -16 -16 6 14 10 27 16 30 13 3 -2 -4 -11 -14 -19z m49 -334 c57 -415 193 -836 400 -1238 l73 -142 -26 -5 c-186 -38 -336 -104 -483 -211 -110 -80 -277 -252 -383 -393 -13 -17 -13 -17 89 50 213 141 594 273 905 314 l45 5 55 -82 c217 -326 543 -702 868 -1002 86 -79 171 -155 187 -168 l30 -23 -18 27 c-79 124 -248 451 -337 655 -48 109 -55 131 -41 130 12 -1 17 -7 13 -19 -2 -10 1 -18 7 -18 7 0 9 5 5 13 -4 6 2 4 14 -7 12 -10 20 -21 19 -25 -1 -3 2 -7 6 -8 5 -1 66 -58 137 -127 257 -249 501 -414 820 -554 163 -72 370 -145 370 -132 0 6 -22 55 -50 109 -64 128 -202 433 -197 437 1 2 34 -33 72 -77 159 -184 399 -372 628 -494 81 -43 227 -108 227 -100 0 2 -13 88 -29 192 -107 680 -269 1981 -259 2071 2 17 0 32 -5 32 -5 0 -2 7 7 15 20 20 29 19 23 -4 -3 -13 -1 -18 9 -14 7 2 10 12 7 21 -3 9 14 -4 38 -30 30 -31 74 -107 138 -233 70 -137 101 -189 118 -196 34 -13 78 -65 117 -140 l35 -66 -79 -32 c-90 -37 -219 -111 -241 -137 -13 -16 -12 -17 16 -11 17 4 113 10 215 13 l185 7 39 -57 c72 -105 302 -316 328 -300 4 3 8 -2 8 -10 0 -10 6 -13 17 -9 10 4 14 2 9 -5 -7 -12 51 -32 93 -32 17 0 22 -4 17 -16 -5 -14 -4 -15 9 -4 8 7 12 16 9 21 -2 5 19 -8 48 -27 29 -20 116 -67 194 -105 167 -82 289 -117 447 -126 l107 -6 1 -106 c1 -58 3 -137 5 -176 2 -67 -2 -102 -24 -188 -12 -46 -5 -79 17 -75 23 3 61 -20 61 -37 0 -8 8 -15 18 -15 24 0 56 -35 47 -51 -12 -18 -16 -156 -5 -184 6 -15 28 -34 55 -47 44 -22 45 -22 61 -2 14 17 15 17 10 1 -5 -15 -2 -17 17 -13 12 3 16 3 10 0 -7 -3 -13 -10 -13 -15 0 -6 6 -7 13 -3 6 4 3 -2 -7 -14 -11 -12 -22 -19 -25 -16 -3 4 0 9 7 11 10 4 10 8 1 19 -7 9 -16 11 -23 5 -15 -12 -241 -31 -365 -31 -150 0 -195 14 -131 40 43 18 117 101 129 146 6 21 9 39 7 41 -2 2 -40 -5 -85 -17 -129 -33 -260 -49 -481 -60 -334 -16 -491 -58 -645 -172 -54 -40 -155 -145 -155 -161 0 -3 24 5 53 18 62 27 182 65 206 65 9 0 -15 -17 -52 -38 -72 -39 -139 -99 -163 -144 -8 -16 -13 -28 -10 -28 2 0 35 13 72 29 181 77 379 114 604 114 306 0 579 -74 852 -229 l108 -62 0 42 c0 23 -9 59 -19 79 l-19 37 56 -30 c30 -16 57 -28 60 -26 10 11 -68 136 -114 183 l-51 51 31 7 c17 3 39 7 48 8 9 1 14 5 12 9 -5 8 11 12 29 9 5 -1 6 2 3 7 -3 5 8 21 23 36 19 18 31 24 36 16 5 -8 11 -7 23 2 15 11 15 11 5 -3 -7 -9 -10 -19 -6 -22 3 -4 1 -7 -5 -7 -6 0 -15 7 -20 16 -8 15 -10 15 -15 0 -4 -9 -2 -16 3 -16 6 0 10 -6 10 -14 0 -8 10 -23 23 -33 26 -22 34 -45 11 -36 -15 5 -14 3 0 -26 9 -17 14 -31 12 -31 -3 0 -1 -12 4 -26 6 -14 6 -23 2 -20 -5 3 -9 -8 -9 -24 0 -16 5 -26 10 -23 17 10 1 -387 -22 -534 -19 -123 -53 -265 -70 -288 -13 -17 -42 -135 -36 -144 3 -5 0 -13 -6 -17 -8 -5 -9 -3 -4 6 5 9 4 11 -3 6 -7 -4 -12 -15 -13 -24 0 -9 -15 -44 -33 -77 -30 -58 -35 -62 -126 -107 -162 -80 -386 -149 -539 -164 -42 -4 -68 -10 -60 -14 19 -11 188 -28 353 -36 l138 -7 -38 -34 c-72 -62 -200 -142 -316 -198 -110 -53 -121 -56 -214 -62 -137 -8 -183 -12 -229 -18 -109 -15 -147 -16 -139 -3 4 7 -3 4 -16 -7 -13 -11 -20 -14 -16 -7 11 18 -5 15 -21 -5 -14 -17 -14 -17 -9 0 3 9 1 17 -4 17 -6 0 -10 -6 -11 -12 0 -10 -2 -10 -6 0 -4 10 -8 10 -21 0 -13 -11 -14 -11 -7 1 6 11 4 13 -11 7 -10 -4 -55 -12 -99 -17 -133 -16 -195 -30 -188 -43 4 -6 0 -6 -9 2 -13 10 -24 9 -62 -8 -26 -11 -50 -19 -54 -18 -13 3 -107 -29 -145 -50 -21 -11 -48 -18 -60 -15 -18 4 -19 3 -7 -6 13 -9 13 -11 -2 -11 -25 0 -112 -40 -121 -55 -4 -8 -14 -12 -21 -9 -8 3 -27 -2 -43 -11 -15 -9 -20 -14 -10 -11 11 4 16 2 11 -5 -3 -6 -15 -8 -26 -6 -12 3 -23 -2 -31 -14 -6 -10 -20 -19 -30 -19 -10 0 -15 -4 -12 -10 5 -9 -24 -15 -48 -11 -5 1 -6 -3 -2 -9 6 -10 -7 -14 -32 -11 -6 1 -15 -4 -19 -10 -5 -8 -3 -9 7 -4 8 5 3 -3 -11 -18 -25 -27 -47 -37 -34 -15 4 7 3 8 -5 4 -6 -4 -9 -11 -6 -16 3 -5 -7 -16 -22 -24 -15 -8 -46 -30 -67 -49 -24 -21 -45 -33 -54 -29 -11 4 -14 1 -10 -10 4 -8 1 -15 -8 -15 -7 0 -11 5 -8 11 3 6 -2 2 -10 -8 -9 -11 -16 -16 -16 -10 0 5 -5 2 -10 -6 -8 -13 -10 -13 -10 0 0 10 -5 7 -16 -8 -8 -12 -19 -20 -24 -17 -4 3 -23 -1 -41 -9 -22 -9 -53 -12 -92 -8 -36 3 -58 1 -54 -4 3 -5 -3 -10 -14 -10 -12 0 -15 4 -9 10 14 14 12 23 -5 23 -8 0 -12 -4 -9 -9 8 -12 -9 -9 -28 6 -10 7 -14 16 -10 20 4 4 2 6 -5 4 -6 -2 -39 21 -72 49 -147 130 -330 228 -565 305 -367 120 -783 196 -1162 214 l-147 7 -96 47 c-123 61 -224 133 -332 237 l-86 83 -17 88 c-36 182 -98 262 -238 306 -34 10 -171 314 -252 557 -184 552 -300 1312 -295 1928 2 196 4 226 19 241 13 13 15 22 7 36 -9 17 -9 17 5 6 17 -14 34 -1 23 17 -3 5 0 13 6 17 8 4 9 3 5 -5 -10 -15 36 -33 46 -17 4 6 8 -2 9 -19 1 -21 3 -24 6 -10 3 11 13 27 22 35 10 8 28 34 41 58 14 25 31 42 42 42 10 0 18 5 18 11 0 6 18 29 40 50 46 45 49 53 18 45 -13 -3 -17 -3 -10 0 6 3 12 11 12 18 0 7 19 21 43 32 71 31 70 29 78 217 14 326 86 659 184 862 43 88 228 406 262 450 4 6 17 27 28 48 l20 38 7 -58 c5 -32 15 -110 23 -173z m4356 -197 c13 -16 12 -17 -3 -4 -17 13 -22 21 -14 21 2 0 10 -8 17 -17z m44 -121 c-3 -3 -11 0 -18 7 -9 10 -8 11 6 5 10 -3 15 -9 12 -12z m15 -24 c0 -9 4 -8 10 2 5 8 10 11 10 5 0 -5 -4 -15 -8 -22 -6 -9 -11 -7 -20 7 -7 12 -8 20 -2 20 5 0 10 -6 10 -12z m56 -43 c-1 -8 -5 -18 -9 -21 -4 -4 -2 -13 5 -21 6 -7 8 -16 4 -20 -3 -3 -6 -1 -6 6 0 7 -5 9 -12 5 -6 -4 -8 -3 -4 4 3 6 -1 17 -9 25 -8 9 -15 19 -15 23 0 5 5 3 12 -4 13 -13 29 -16 27 -4 -2 11 1 22 5 22 2 0 3 -7 2 -15z m50 -90 c27 1 32 -2 32 -22 0 -33 20 -53 53 -53 23 0 29 -4 29 -22 0 -31 29 -58 62 -58 40 0 258 -216 258 -257 0 -34 26 -63 57 -63 17 0 23 -6 23 -22 0 -29 28 -58 57 -58 19 0 23 -5 23 -28 0 -15 5 -33 12 -40 7 -7 25 -12 40 -12 26 0 28 -3 28 -40 0 -37 2 -40 28 -40 15 0 33 -5 40 -12 7 -7 12 -25 12 -40 0 -19 5 -28 16 -28 20 0 64 -40 64 -58 0 -8 19 -32 43 -54 23 -23 42 -44 42 -47 2 -23 31 -81 41 -81 17 0 27 -35 34 -130 4 -47 13 -119 20 -160 16 -89 20 -750 7 -1010 -9 -172 -64 -642 -92 -790 -9 -47 -24 -128 -34 -180 l-17 -95 0 250 c-1 343 -27 596 -100 953 -117 572 -357 1249 -666 1876 -38 76 -70 143 -71 150 -1 6 -5 13 -9 16 -3 3 -8 12 -10 20 -2 8 -9 21 -16 29 -7 7 -11 20 -8 28 3 8 2 12 -2 9 -5 -3 -19 16 -31 41 -12 26 -17 42 -9 36 7 -5 27 -9 44 -8z m-1125 -77 c22 -6 39 -14 39 -18 0 -4 18 -10 39 -14 21 -3 41 -12 44 -20 3 -7 22 -16 41 -20 20 -4 36 -11 36 -16 0 -5 10 -11 23 -15 37 -10 97 -40 97 -47 0 -5 7 -8 15 -8 9 0 18 -7 21 -15 4 -8 14 -15 24 -15 10 0 23 -7 30 -15 7 -8 16 -15 21 -15 14 0 94 -57 129 -94 19 -19 37 -33 40 -31 13 8 294 -277 295 -298 0 -5 7 -14 15 -20 22 -17 104 -130 107 -146 1 -7 11 -24 23 -36 13 -14 19 -29 15 -36 -5 -8 -4 -10 3 -5 7 4 12 2 12 -4 0 -6 5 -8 12 -4 7 4 8 3 4 -4 -5 -8 -26 -4 -73 13 -193 73 -454 85 -664 30 -25 -6 -30 -1 -78 77 -113 183 -222 421 -301 656 -46 136 -44 143 31 120z m-8171 -818 c0 -5 -5 -10 -11 -10 -5 0 -7 5 -4 10 3 6 8 10 11 10 2 0 4 -4 4 -10z m5620 -47 c101 -20 235 -65 317 -107 113 -58 113 -58 -52 -51 -82 3 -219 1 -304 -4 l-153 -11 -39 40 c-22 22 -43 40 -49 40 -5 0 -10 4 -10 9 0 5 -12 14 -27 20 -39 14 -66 38 -59 50 4 6 -2 8 -14 6 -11 -2 -18 0 -15 6 4 5 10 7 15 4 5 -3 11 -1 15 5 3 5 17 10 31 10 14 0 23 -4 19 -9 -3 -5 -1 -13 5 -16 6 -4 9 -1 8 6 -7 31 163 32 312 2z m3390 1 c86 -19 133 -35 126 -42 -3 -3 -2 -10 2 -17 4 -6 -2 -2 -12 10 -19 20 -19 20 -12 -10 5 -22 4 -26 -4 -15 -9 13 -14 7 -11 -12 0 -5 -8 -8 -19 -8 -21 0 -65 -40 -74 -68 -4 -12 -15 -18 -34 -17 -15 0 -30 -3 -33 -8 -3 -4 -64 -1 -135 7 -180 21 -388 28 -526 19 -65 -5 -118 -7 -118 -5 0 2 55 30 123 62 245 118 503 155 727 104z m-5153 -203 c0 -11 -5 -18 -9 -15 -4 3 -5 11 -1 19 7 21 12 19 10 -4z m2001 -27 c15 -26 54 -88 86 -138 33 -50 78 -136 101 -191 40 -95 170 -384 221 -489 13 -27 21 -52 19 -56 -3 -4 3 -11 13 -15 16 -6 16 -8 -3 -22 -20 -15 -20 -15 2 -10 19 4 20 3 10 -14 -9 -14 -14 -16 -27 -6 -8 6 -6 1 5 -11 19 -23 19 -23 27 -3 4 12 10 21 12 21 3 0 1 -12 -4 -26 -13 -34 -13 -47 2 -38 6 4 8 3 5 -3 -8 -12 17 -36 26 -26 4 3 7 4 7 0 0 -40 -113 59 -334 292 -204 215 -412 471 -554 683 l-52 77 33 5 c55 10 107 13 245 14 l132 2 28 -46z m2999 17 c144 -22 264 -48 392 -87 95 -29 196 -73 167 -74 -15 0 -16 -3 -6 -15 7 -8 9 -15 6 -15 -4 0 0 -7 8 -16 9 -8 16 -29 16 -45 0 -16 5 -29 10 -29 6 0 10 -15 10 -33 0 -19 3 -37 7 -41 14 -14 32 -82 34 -128 2 -27 5 -48 8 -48 3 0 7 -11 7 -25 1 -16 -2 -22 -9 -18 -6 4 -21 8 -33 9 -34 4 -231 95 -322 149 -129 77 -267 185 -380 297 -57 57 -108 111 -113 121 -8 15 -5 17 28 17 21 0 97 -9 170 -19z m-7967 -73 c0 -5 -9 -3 -20 4 -11 7 -20 18 -20 25 0 9 6 7 20 -4 11 -10 20 -21 20 -25z m11277 -180 c131 -144 48 -403 -197 -614 -157 -136 -313 -193 -411 -149 -23 11 -47 31 -55 48 -33 63 -9 232 48 339 59 111 192 209 461 339 67 32 125 59 128 59 3 0 15 -10 26 -22z m-8390 -300 c-3 -8 -6 -5 -6 6 -1 11 2 17 5 13 3 -3 4 -12 1 -19z m-3623 -23 c-4 -8 -11 -12 -17 -8 -8 5 -7 8 1 11 7 2 9 9 6 14 -4 7 -2 8 4 4 6 -4 9 -13 6 -21z m3633 -17 c-3 -8 -6 -5 -6 6 -1 11 2 17 5 13 3 -3 4 -12 1 -19z m-3652 -18 c-3 -5 -14 -10 -23 -10 -15 0 -15 2 -2 10 20 13 33 13 25 0z m11980 -413 c-2 -17 5 -29 27 -41 16 -10 32 -15 35 -12 10 10 32 -28 33 -56 0 -24 4 -28 30 -28 19 0 34 -7 42 -20 7 -11 17 -20 23 -20 6 0 26 -15 45 -34 19 -18 50 -41 68 -50 17 -9 32 -21 32 -26 0 -5 16 -16 35 -24 19 -8 46 -26 59 -40 12 -14 34 -27 47 -28 29 -4 39 -15 39 -48 0 -20 2 -22 10 -10 14 21 13 13 -11 -81 -85 -343 -211 -683 -374 -1004 -236 -466 -525 -858 -916 -1240 -301 -294 -614 -527 -943 -700 -151 -80 -346 -159 -445 -180 l-34 -7 21 30 c12 16 62 96 111 177 90 147 91 148 193 225 118 89 222 193 263 264 34 58 90 239 111 356 8 47 14 135 13 195 l-1 110 65 165 c113 287 218 609 288 881 17 68 34 129 37 134 7 10 8 17 10 51 1 12 11 32 23 45 l21 24 -8 -29 c-6 -25 -5 -28 10 -23 14 6 16 3 11 -16 -6 -22 -6 -22 10 -2 15 18 17 19 29 3 6 -9 25 -18 41 -20 26 -3 30 -7 28 -31 -2 -23 1 -27 15 -23 10 4 35 -3 57 -14 48 -25 62 -25 68 -2 3 14 6 13 15 -8 6 -14 11 -22 11 -17 1 4 12 0 26 -9 23 -15 25 -15 25 0 0 10 8 16 23 15 12 0 16 -3 10 -6 -7 -2 -13 -11 -13 -18 0 -19 28 -27 37 -10 9 15 53 10 53 -6 0 -12 -27 -11 -33 1 -3 6 -4 5 -3 -2 2 -9 32 -15 97 -19 84 -5 97 -3 122 15 32 24 115 188 147 291 12 39 28 86 36 105 21 55 50 168 95 375 11 50 22 99 25 110 3 11 8 31 9 45 2 14 7 36 10 50 3 14 9 43 12 65 3 22 13 50 20 62 8 12 12 26 9 32 -10 16 6 43 21 36 11 -4 13 -1 9 11 -7 19 1 54 13 54 5 0 7 -11 6 -23z m-2002 -562 c-3 -9 -8 -14 -10 -11 -3 3 -2 9 2 15 9 16 15 13 8 -4z m-6853 -354 c0 -5 23 -31 50 -59 28 -28 50 -55 50 -61 0 -6 13 -20 30 -32 16 -12 27 -26 24 -31 -3 -5 0 -15 6 -23 7 -8 10 -24 7 -35 -3 -11 -1 -18 4 -14 5 3 9 -1 9 -10 0 -29 62 -203 104 -291 37 -78 132 -230 169 -271 7 -7 23 -26 37 -43 58 -71 131 -142 140 -136 6 3 15 -6 20 -20 12 -31 13 -154 2 -172 -10 -16 -153 51 -237 112 -141 100 -224 228 -298 460 -58 179 -129 462 -141 558 -2 20 -7 44 -10 54 -4 14 -1 19 14 20 11 1 20 -2 20 -6z m618 -156 c-3 -3 -9 2 -12 12 -6 14 -5 15 5 6 7 -7 10 -15 7 -18z m7362 -35 c0 -5 -7 -10 -16 -10 -8 0 -12 5 -9 10 3 6 10 10 16 10 5 0 9 -4 9 -10z m1178 -449 c-4 -113 -10 -206 -12 -209 -2 -2 -38 40 -79 93 l-75 97 79 164 c44 90 80 169 81 176 0 7 4 -16 8 -52 3 -36 3 -157 -2 -269z m-11131 147 c-3 -8 -6 -5 -6 6 -1 11 2 17 5 13 3 -3 4 -12 1 -19z m28 -8 c3 -5 1 -10 -4 -10 -6 0 -11 5 -11 10 0 6 2 10 4 10 3 0 8 -4 11 -10z m2790 -195 c42 -20 77 -59 106 -114 27 -53 26 -80 -6 -187 -71 -232 -97 -426 -76 -554 15 -89 73 -200 135 -256 27 -24 53 -41 58 -38 5 3 7 0 6 -7 -2 -7 6 -15 17 -17 11 -2 34 -16 52 -29 18 -14 33 -22 33 -19 0 4 35 -20 77 -53 49 -39 81 -57 87 -51 5 5 8 11 5 13 -138 102 -276 247 -324 344 l-30 58 0 245 c1 135 4 298 9 364 l8 119 62 -5 c81 -7 125 -31 183 -101 29 -36 56 -119 89 -279 19 -95 41 -177 48 -183 63 -49 74 -61 69 -69 -4 -5 0 -7 9 -4 12 5 13 -1 8 -37 -6 -40 -4 -44 19 -55 44 -20 165 -31 436 -40 266 -8 357 -16 574 -51 353 -56 732 -164 934 -266 225 -112 434 -300 518 -466 l20 -37 -29 -43 c-44 -63 -109 -197 -137 -281 -40 -120 -57 -213 -61 -345 -2 -67 -7 -128 -12 -135 -5 -6 -17 -25 -25 -42 -9 -18 -38 -55 -64 -84 -26 -29 -51 -61 -55 -71 -4 -11 -12 -19 -18 -19 -5 0 -10 -6 -10 -13 0 -7 -10 -25 -22 -41 -13 -15 -34 -47 -48 -70 -14 -24 -38 -63 -54 -87 -16 -24 -45 -69 -65 -99 -42 -66 -201 -290 -216 -306 -28 -31 -45 -55 -45 -64 0 -6 -3 -10 -7 -10 -5 0 -19 -16 -32 -36 -14 -20 -39 -50 -55 -67 -17 -18 -54 -59 -83 -92 -28 -33 -89 -99 -135 -146 -77 -80 -111 -111 -232 -214 -26 -22 -53 -45 -59 -50 -35 -31 -78 -55 -87 -50 -6 4 -16 2 -23 -3 -7 -6 -51 -12 -99 -14 -83 -3 -87 -2 -82 16 4 13 -1 25 -14 35 -16 12 -22 30 -26 71 -2 30 -6 62 -10 70 -8 21 -53 398 -67 565 -7 77 -13 252 -13 390 l-1 250 115 79 c287 197 442 296 533 341 135 67 160 103 118 171 -36 59 -138 108 -381 182 -36 11 -81 23 -100 27 -19 3 -46 10 -60 14 -14 5 -59 19 -100 31 -109 33 -207 65 -270 90 -30 12 -63 23 -73 25 -61 13 -417 159 -507 208 -25 13 -76 41 -115 61 -38 21 -85 50 -104 64 -18 15 -48 37 -66 49 -43 29 -134 118 -176 173 -18 25 -40 51 -47 59 -20 20 -54 89 -79 161 -22 61 -56 269 -48 293 14 43 23 617 10 661 -6 23 -4 32 10 43 11 7 14 13 9 13 -6 0 -14 -3 -18 -7 -3 -4 -13 -8 -22 -9 -12 -2 -13 1 -3 12 6 8 18 14 25 14 8 0 14 5 14 10 0 15 58 12 95 -5z m6435 -10 c16 -15 18 -40 23 -258 3 -162 10 -277 21 -347 28 -164 19 -341 -24 -494 -18 -66 -40 -126 -49 -135 -9 -9 -109 -90 -223 -180 -115 -89 -205 -167 -202 -172 7 -13 4 -15 217 154 104 82 190 147 193 145 10 -11 -65 -104 -147 -183 -246 -233 -801 -527 -1523 -805 -116 -44 -212 -83 -215 -85 -6 -6 -37 16 288 -205 l284 -193 -6 -231 c-12 -425 -56 -831 -139 -1278 l-21 -117 -44 46 c-23 26 -43 49 -43 52 0 8 -250 251 -259 251 -5 0 -21 12 -36 28 -15 15 -32 27 -39 28 -17 0 -60 16 -66 23 -3 3 -41 24 -85 46 -43 22 -93 49 -110 60 -16 12 -48 29 -70 39 -22 10 -44 23 -50 30 -5 6 -27 19 -47 28 -21 10 -38 24 -38 32 0 8 -7 17 -16 20 -9 4 -13 2 -8 -5 3 -6 -5 -3 -20 6 -25 16 -38 34 -15 19 7 -4 10 -1 7 7 -3 8 -15 16 -29 17 -13 2 -37 16 -54 30 -17 15 -50 42 -72 60 -46 37 -83 71 -159 143 -29 27 -57 49 -64 49 -6 0 -18 6 -26 14 -11 11 -11 16 -1 19 7 3 5 6 -5 6 -15 1 -23 13 -16 24 4 6 -24 47 -34 47 -6 0 -3 -9 6 -19 14 -15 15 -21 4 -27 -7 -4 -10 -4 -6 1 9 10 -11 37 -22 30 -4 -2 -18 19 -31 48 -13 29 -32 61 -42 72 -10 10 -15 26 -12 34 3 9 3 12 -1 8 -14 -13 -240 406 -284 526 -93 254 -80 544 34 792 133 288 414 511 806 639 439 143 881 217 1301 216 l207 0 143 101 c79 56 147 104 151 108 5 4 26 89 47 189 38 174 68 259 100 285 12 9 13 9 7 0 -4 -7 -4 -13 1 -13 4 0 18 16 31 36 28 43 74 64 140 64 46 0 50 -2 55 -27 3 -16 11 -161 18 -323 14 -345 10 -376 -65 -489 -43 -64 -165 -189 -255 -262 -28 -22 -40 -38 -34 -42 27 -17 251 192 317 296 58 90 66 124 66 268 0 79 4 129 10 129 6 0 10 -3 11 -7 0 -5 2 -19 4 -33 7 -54 6 -206 -1 -224 -5 -14 -4 -17 4 -12 8 5 12 -3 12 -25 0 -32 0 -32 21 -13 60 53 70 175 35 417 -41 279 -38 365 20 492 l27 57 39 -5 c22 -3 48 -13 58 -22z m1785 -70 l77 -95 -7 -58 c-4 -31 -16 -100 -26 -152 -11 -52 -22 -106 -24 -120 -6 -31 -79 -264 -95 -305 -7 -16 -21 -49 -31 -72 -11 -24 -19 -46 -19 -49 0 -8 -79 -165 -95 -187 -11 -16 -18 -7 -64 88 -45 95 -129 232 -206 337 l-27 37 59 83 c33 46 81 113 106 151 51 73 197 313 237 390 14 26 28 47 31 47 4 0 41 -43 84 -95z m-2038 -97 c-3 -8 -6 -5 -6 6 -1 11 2 17 5 13 3 -3 4 -12 1 -19z m2150 -80 c-3 -8 -6 -5 -6 6 -1 11 2 17 5 13 3 -3 4 -12 1 -19z m-2126 -172 c5 -6 9 -17 9 -25 0 -9 -7 -3 -15 13 -8 15 -14 36 -14 45 1 11 3 10 6 -4 3 -11 9 -24 14 -29z m6 -151 c-3 -59 -17 -59 -17 0 0 25 4 45 10 45 5 0 8 -20 7 -45z m-7563 -440 c5 0 10 -6 12 -13 1 -7 0 -8 -3 -2 -2 5 -8 8 -13 5 -4 -3 -14 3 -21 12 -12 15 -12 16 1 8 8 -6 19 -10 24 -10z m1546 -51 c0 -7 8 -18 18 -24 10 -7 11 -10 2 -7 -7 2 -23 19 -33 37 -15 27 -15 31 -3 21 9 -8 16 -19 16 -27z m99 -118 c-3 -3 -11 5 -18 17 -13 21 -12 21 5 5 10 -10 16 -20 13 -22z m-1882 -8 c-3 -8 -6 -5 -6 6 -1 11 2 17 5 13 3 -3 4 -12 1 -19z m9633 -246 c0 -15 -2 -15 -10 -2 -13 20 -13 33 0 25 6 -3 10 -14 10 -23z m10 -80 c0 -7 -4 -10 -10 -7 -5 3 -10 16 -10 28 0 18 2 19 10 7 5 -8 10 -21 10 -28z m-9303 -294 c-3 -7 -5 -2 -5 12 0 14 2 19 5 13 2 -7 2 -19 0 -25z m2134 -1141 c-10 -9 -11 -8 -5 6 3 10 9 15 12 12 3 -3 0 -11 -7 -18z m-4 -54 c-4 -3 -1 -13 6 -22 11 -14 10 -14 -5 -2 -16 12 -16 31 -1 31 4 0 3 -3 0 -7z m-1039 -40 c40 -30 82 -94 80 -123 -1 -14 2 -31 7 -39 5 -10 4 -16 -4 -19 -9 -3 -10 -7 -2 -11 11 -7 18 -107 8 -117 -3 -3 -2 -17 4 -31 6 -16 6 -22 -1 -18 -6 3 -10 -1 -10 -9 0 -9 4 -16 8 -16 4 0 7 -36 6 -80 -2 -44 1 -78 5 -76 5 3 14 -36 20 -87 7 -51 15 -99 18 -107 3 -8 8 -33 10 -55 3 -22 6 -42 9 -44 2 -2 -2 -11 -9 -19 -7 -10 -8 -13 -1 -9 7 4 14 -2 17 -13 5 -18 3 -19 -24 -5 -49 26 -97 74 -146 147 l-47 71 -12 -62 c-24 -115 -75 -191 -130 -191 -13 0 -24 2 -24 4 0 8 67 160 95 216 43 86 163 286 180 300 16 14 20 40 6 40 -5 0 -16 2 -23 5 -9 4 -33 -20 -64 -62 -28 -38 -113 -151 -189 -253 -76 -102 -141 -189 -146 -194 -23 -25 -143 99 -155 160 -14 76 52 159 169 215 l62 29 -110 0 c-235 0 -348 68 -348 209 0 50 3 57 36 88 34 31 41 33 106 33 74 0 197 -31 296 -75 32 -14 59 -25 61 -25 1 0 -4 21 -13 46 -29 84 -1 146 82 186 51 24 134 20 173 -9z m6823 16 c90 -27 127 -93 103 -184 -7 -28 -11 -51 -9 -53 2 -2 18 4 36 14 74 38 206 76 285 81 96 7 138 -9 160 -62 29 -70 11 -139 -49 -192 -53 -46 -122 -65 -265 -70 l-124 -5 67 -37 c83 -45 143 -103 151 -148 12 -64 -3 -103 -67 -165 -33 -32 -64 -58 -69 -58 -7 0 -78 91 -205 265 -35 47 -156 209 -179 237 -11 15 -31 28 -43 28 -18 0 -21 5 -17 38 10 106 12 182 4 187 -5 3 -7 12 -4 20 4 8 11 12 17 8 6 -3 7 -1 3 5 -8 14 29 58 69 83 34 22 81 24 136 8z m-5782 -46 c-7 -7 -15 -11 -18 -7 -3 4 0 9 7 11 10 4 10 8 0 21 -12 15 -11 16 5 3 13 -11 15 -17 6 -28z m1 -60 c0 -10 -4 -14 -8 -8 -4 6 -11 13 -16 18 -5 4 -2 7 7 7 10 0 17 -8 17 -17z m-15 -53 c3 -5 1 -10 -4 -10 -6 0 -11 5 -11 10 0 6 2 10 4 10 3 0 8 -4 11 -10z m5656 -360 c23 -19 173 -318 194 -387 11 -38 -32 -29 -74 15 -34 36 -56 89 -76 186 -6 29 -6 29 -46 -32 -22 -33 -65 -83 -96 -111 -55 -49 -90 -69 -62 -34 12 15 12 16 -5 10 -14 -6 -16 -4 -9 5 6 7 16 45 23 83 13 76 22 119 40 180 6 22 12 48 14 57 1 10 5 21 9 24 4 4 7 26 7 49 0 23 3 45 7 48 4 4 20 -14 37 -40 17 -27 33 -50 37 -53z m-5169 -582 c-7 -7 -12 -8 -12 -2 0 14 12 26 19 19 2 -3 -1 -11 -7 -17z m-1345 -328 c58 -25 130 -95 161 -156 59 -118 82 -235 91 -452 l6 -174 40 32 c22 18 74 49 115 69 72 34 80 36 180 36 101 0 109 -2 175 -35 50 -25 71 -42 76 -60 9 -30 62 -308 64 -332 1 -10 4 -21 8 -24 12 -13 7 -24 -10 -24 -15 0 -16 2 -3 10 8 5 10 10 4 10 -18 0 -24 -12 -13 -26 24 -29 -207 -188 -393 -270 -49 -21 -88 -41 -88 -45 0 -3 23 -11 50 -17 60 -14 210 -81 210 -94 0 -5 5 -6 10 -3 6 3 10 1 10 -4 0 -10 -14 -15 -32 -12 -5 0 -8 -8 -8 -19 0 -10 -6 -23 -13 -27 -8 -4 -22 -23 -32 -40 -11 -18 -23 -33 -26 -33 -4 0 -11 -10 -15 -22 -4 -13 -20 -35 -37 -51 -28 -26 -32 -27 -65 -16 -133 44 -256 125 -307 202 -19 29 -57 103 -84 166 -28 62 -56 120 -63 128 -10 12 -9 17 4 27 9 7 170 97 357 201 187 104 339 190 338 192 -2 1 -167 -81 -367 -182 -201 -101 -368 -184 -372 -185 -4 0 -3 12 2 26 17 44 23 157 11 229 -10 66 -23 115 -95 360 -15 50 -33 142 -40 205 -8 63 -14 99 -15 80 -2 -84 23 -237 64 -396 25 -94 48 -204 52 -245 13 -120 -9 -249 -43 -249 -7 0 -61 36 -121 81 -59 44 -146 99 -193 121 -47 22 -86 41 -88 43 -3 3 -40 173 -48 220 -5 35 -4 36 18 30 29 -10 96 -48 173 -99 50 -33 57 -36 43 -16 -321 453 -301 754 54 850 92 25 183 22 255 -10z m6568 15 c96 -25 169 -63 218 -113 58 -59 77 -112 77 -214 0 -134 -60 -286 -186 -470 -29 -43 -51 -78 -48 -78 2 0 25 15 51 34 51 36 203 119 209 113 2 -1 -1 -19 -6 -38 -5 -18 -16 -68 -26 -109 -25 -115 -24 -114 -116 -156 -46 -21 -120 -67 -166 -102 -93 -71 -142 -102 -158 -102 -21 0 -39 93 -37 195 1 85 9 129 54 300 50 193 52 205 55 350 l2 150 -8 -140 c-7 -119 -14 -159 -45 -265 -88 -295 -97 -336 -92 -450 3 -58 8 -115 12 -128 7 -20 -49 5 -365 163 -205 102 -374 185 -375 183 -2 -2 158 -92 355 -201 l359 -198 -29 -57 c-16 -31 -52 -105 -79 -163 -41 -87 -60 -115 -107 -158 -63 -58 -219 -139 -280 -147 -22 -2 -34 -2 -27 2 16 7 -7 34 -24 27 -7 -3 -10 2 -7 15 6 19 -46 82 -67 82 -6 0 -9 8 -8 18 2 20 -10 52 -28 70 -9 9 -13 10 -13 2 0 -6 -5 -10 -11 -8 -18 6 -15 21 5 24 10 1 26 11 36 22 17 18 176 82 204 82 37 0 16 17 -70 56 -178 80 -322 172 -307 197 3 7 3 9 -2 5 -4 -4 -14 0 -22 10 -10 11 -12 12 -8 2 4 -8 -7 -1 -23 17 -17 17 -32 30 -34 27 -3 -2 -5 2 -6 9 0 6 -2 19 -4 27 -2 12 55 333 67 377 2 6 34 26 71 43 92 44 201 52 300 22 70 -22 149 -65 194 -108 l25 -23 1 152 c3 491 184 731 489 652z m939 -750 c53 -53 118 -179 142 -274 18 -72 16 -192 -4 -199 -7 -2 -9 -9 -6 -14 4 -6 2 -8 -3 -5 -10 6 -27 63 -24 80 1 4 -12 36 -28 70 -16 34 -32 73 -36 87 -4 14 -20 46 -36 72 -16 26 -32 60 -35 75 -4 16 -22 55 -41 89 -18 33 -30 64 -26 69 5 4 2 5 -4 1 -18 -10 -33 2 -27 19 9 21 70 -13 128 -70z m-8706 -42 c-9 -10 -14 -23 -11 -29 2 -6 -3 -17 -12 -24 -8 -7 -15 -20 -15 -29 0 -9 -9 -44 -21 -76 -12 -33 -22 -69 -24 -80 -2 -11 -9 -45 -16 -75 -6 -30 -12 -67 -13 -82 -1 -15 -5 -23 -10 -18 -5 5 -6 50 -4 102 4 76 10 107 37 170 31 73 83 158 98 158 3 0 -1 -8 -9 -17z m847 -304 c28 -17 81 -57 119 -90 37 -33 81 -66 97 -74 16 -9 29 -19 29 -23 0 -14 -156 -207 -168 -207 -14 0 -19 8 -78 121 -43 81 -107 244 -119 302 l-7 33 39 -16 c21 -9 61 -30 88 -46z m7159 34 c-25 -101 -128 -307 -191 -382 l-29 -34 -77 98 -77 97 45 29 c25 16 64 46 87 67 64 57 107 87 173 121 74 37 77 38 69 4z m-6821 -280 c13 -21 46 -85 74 -143 28 -58 68 -125 89 -149 48 -56 132 -110 232 -151 42 -17 85 -35 95 -41 10 -5 23 -7 28 -3 6 4 3 -5 -6 -20 -10 -14 -21 -26 -26 -26 -5 0 -8 -3 -8 -7 3 -20 -2 -24 -15 -14 -12 10 -17 8 -26 -9 -10 -19 -17 -20 -77 -15 -36 4 -73 10 -82 15 -9 5 -42 16 -74 25 -32 9 -56 19 -53 23 3 4 -5 9 -16 9 -12 1 -44 24 -71 50 -31 30 -51 43 -54 36 -3 -7 -11 -13 -19 -13 -9 0 -13 4 -10 8 2 4 -11 18 -30 31 -19 13 -34 27 -34 32 0 5 -7 9 -15 9 -8 0 -15 3 -15 8 0 4 -24 33 -54 64 -30 31 -51 59 -48 62 3 4 0 6 -6 6 -25 0 -10 31 50 105 79 99 123 145 137 145 6 0 21 -17 34 -37z m6413 29 c13 -9 164 -191 164 -198 0 -23 -254 -254 -279 -254 -6 0 -11 -4 -11 -9 0 -11 -117 -70 -150 -76 -10 -2 -27 -8 -38 -14 -33 -18 -162 -29 -188 -17 -28 13 -48 59 -26 62 4 0 25 9 47 18 22 10 59 26 82 36 121 53 196 130 274 284 34 67 68 133 75 149 15 27 30 33 50 19z m-5836 -462 c-8 -5 -19 -10 -25 -10 -5 0 -3 5 5 10 8 5 20 10 25 10 6 0 3 -5 -5 -10z" /> 		<path d="M4520 14631 c0 -10 29 -36 34 -30 1 2 -6 12 -16 22 -10 9 -18 13 -18 8z" /> 		<path d="M4646 14546 c7 -19 20 -21 30 -3 4 6 4 9 -1 5 -4 -4 -14 -3 -22 4 -11 8 -12 7 -7 -6z" /> 		<path d="M3541 11614 c0 -11 3 -14 6 -6 3 7 2 16 -1 19 -3 4 -6 -2 -5 -13z" /> 		<path d="M8871 14704 c0 -11 3 -14 6 -6 3 7 2 16 -1 19 -3 4 -6 -2 -5 -13z" /> 		<path d="M5240 10761 c0 -6 4 -13 10 -16 6 -3 7 1 4 9 -7 18 -14 21 -14 7z" /> 		<path d="M5297 10699 c-6 -22 11 -59 26 -59 4 0 5 5 1 11 -3 6 -2 14 4 18 6 4 4 14 -8 28 l-18 22 -5 -20z" /> 		<path d="M5387 10536 c-4 -10 -1 -13 8 -9 8 3 12 9 9 14 -7 12 -11 11 -17 -5z" /> 		<path d="M5261 8283 c7 -12 15 -20 18 -17 3 2 -3 12 -13 22 -17 16 -18 16 -5 -5z" /> 		<path d="M5320 8223 c1 -14 30 -48 30 -34 0 7 -7 19 -15 27 -8 9 -15 12 -15 7z" /> 		<path d="M5404 8075 c8 -8 18 -15 22 -15 3 0 1 7 -6 15 -7 8 -17 15 -22 15 -5 0 -3 -7 6 -15z" /> 		<path d="M6671 9854 c0 -11 3 -14 6 -6 3 7 2 16 -1 19 -3 4 -6 -2 -5 -13z" /> 		<path d="M11544 10300 c-63 -9 -144 -35 -204 -66 -44 -22 -239 -154 -228 -154 3 0 25 9 49 19 24 11 100 34 169 51 69 17 186 51 261 75 75 24 165 49 200 57 l64 13 -75 6 c-100 8 -174 8 -236 -1z" /> 		<path d="M8185 10281 c39 -10 120 -34 180 -54 61 -19 166 -50 235 -67 69 -17 149 -40 178 -51 29 -10 51 -15 48 -11 -11 19 -176 123 -237 151 -94 42 -153 51 -322 50 l-152 -1 70 -17z" /> 		<path d="M7524 10260 c12 -61 94 -150 159 -173 61 -22 -245 -31 -447 -13 l-99 8 7 -28 c9 -40 68 -92 119 -105 l42 -12 -55 -56 c-53 -53 -118 -156 -107 -168 3 -3 31 8 61 25 l55 30 -19 -38 c-20 -39 -38 -120 -26 -120 3 0 46 23 95 50 186 106 384 179 586 216 151 28 423 26 573 -4 119 -24 270 -71 335 -104 45 -22 56 -18 35 14 -32 48 -100 107 -165 141 -104 56 -6 42 141 -20 32 -13 60 -22 63 -19 11 11 -155 163 -217 199 -80 46 -219 92 -325 106 -44 6 -170 16 -280 21 -190 9 -367 32 -484 64 l-53 15 6 -29z" /> 		<path d="M12833 9747 c0 -8 6 -14 14 -14 9 0 10 4 2 14 -6 7 -12 13 -14 13 -1 0 -2 -6 -2 -13z" /> 		<path d="M12454 9435 c-8 -19 -14 -39 -14 -45 0 -33 -45 -198 -58 -213 -14 -15 -17 -16 -32 -2 -14 13 -17 13 -17 1 0 -8 5 -14 10 -13 5 1 12 -4 15 -12 7 -20 -19 -8 -32 14 -6 10 -18 27 -27 38 -16 18 -17 17 -27 -12 -8 -22 -8 -32 0 -37 7 -4 8 -2 4 4 -4 7 -2 12 3 12 6 0 11 -7 11 -15 0 -8 11 -25 25 -39 24 -24 35 -53 15 -41 -5 3 -7 0 -4 -9 3 -8 13 -17 21 -20 13 -5 14 -4 3 9 -7 8 -8 15 -4 15 5 0 15 -9 22 -21 10 -16 10 -19 1 -13 -9 5 -10 2 -6 -9 20 -49 20 -51 1 -29 l-19 23 -2 -33 c-1 -26 0 -28 7 -13 6 17 9 14 15 -19 8 -39 -7 -180 -29 -271 -13 -54 -11 -85 6 -85 5 0 12 9 15 20 3 11 13 20 23 20 10 0 24 10 33 23 8 12 26 33 39 47 31 31 108 144 108 158 0 6 3 12 8 14 11 5 78 138 92 183 7 22 18 54 25 70 16 37 41 117 54 170 5 22 12 49 17 59 6 16 4 18 -14 14 -14 -4 -22 -2 -22 6 0 7 -22 18 -50 25 -27 7 -53 17 -56 22 -9 16 -67 36 -107 37 -35 1 -40 -2 -53 -33z m-61 -296 c5 -17 3 -18 -11 -7 -13 11 -15 11 -9 -4 4 -12 2 -15 -8 -12 -11 5 -12 10 -2 25 15 24 23 24 30 -2z m8 -66 c13 -16 12 -17 -3 -4 -10 7 -18 15 -18 17 0 8 8 3 21 -13z" /> 		<path d="M7600 9193 c-12 -21 -31 -60 -42 -88 -11 -27 -28 -71 -39 -97 -15 -38 -16 -48 -5 -48 8 0 32 43 57 103 23 56 48 111 56 122 7 11 13 25 13 32 0 24 -18 13 -40 -24z" /> 		<path d="M11481 9172 c-37 -73 -81 -181 -81 -199 0 -34 20 -6 50 70 18 45 43 102 56 126 26 47 29 61 14 61 -5 0 -23 -26 -39 -58z" /> 		<path d="M7777 9148 c-16 -136 -20 -238 -9 -238 15 0 20 22 27 135 3 55 8 112 11 128 4 19 2 27 -9 27 -10 0 -16 -16 -20 -52z" /> 		<path d="M8380 9194 c0 -14 167 -224 178 -224 17 0 13 7 -78 129 -41 55 -81 100 -87 101 -7 0 -13 -3 -13 -6z" /> 		<path d="M11667 9153 c-15 -118 -19 -243 -9 -243 13 0 19 32 27 145 3 50 8 102 11 118 4 19 2 27 -9 27 -10 0 -16 -15 -20 -47z" /> 		<path d="M12365 9190 c-3 -6 1 -7 9 -4 18 7 21 14 7 14 -6 0 -13 -4 -16 -10z" /> 		<path d="M8220 9174 c0 -28 63 -234 72 -234 4 0 8 6 8 13 0 27 -63 237 -71 237 -5 0 -9 -7 -9 -16z" /> 		<path d="M12107 9183 c-6 -11 58 -232 71 -245 20 -20 21 10 2 73 -10 35 -26 90 -34 122 -15 52 -28 69 -39 50z" /> 		<path d="M8046 9138 c-3 -24 -7 -85 -9 -135 -4 -74 -2 -93 9 -93 8 0 14 10 14 23 0 12 3 73 7 135 4 78 3 112 -5 112 -6 0 -13 -19 -16 -42z" /> 		<path d="M11936 9148 c-3 -18 -7 -79 -10 -135 -4 -81 -2 -103 8 -103 14 0 26 99 26 212 0 62 -16 79 -24 26z" /> 		<path d="M9508 8470 c27 -72 131 -174 227 -222 101 -51 143 -59 266 -53 63 3 158 5 211 6 54 0 100 4 103 9 3 6 16 5 31 0 33 -13 54 -13 34 0 -9 6 -10 10 -3 10 6 0 15 -4 18 -10 13 -21 174 56 243 116 48 42 112 129 112 152 0 9 -157 12 -625 12 -618 0 -624 0 -617 -20z" /> 		<path d="M10328 8193 c7 -3 16 -2 19 1 4 3 -2 6 -13 5 -11 0 -14 -3 -6 -6z" /> 		<path d="M10229 7588 c0 -2 -2 -11 -4 -21 -3 -15 -1 -16 11 -6 7 6 11 15 8 20 -5 9 -13 12 -15 7z" /> 		<path d="M13805 9540 c3 -5 8 -10 11 -10 2 0 4 5 4 10 0 6 -5 10 -11 10 -5 0 -7 -4 -4 -10z" /> 		<path d="M7724 3422 c4 -7 0 -12 -10 -12 -10 0 -14 -3 -11 -6 3 -4 2 -14 -3 -24 -14 -26 15 -21 42 7 20 21 20 23 4 17 -13 -5 -17 -4 -12 4 3 6 1 14 -5 18 -8 4 -9 3 -5 -4z m-2 -44 c-7 -7 -12 -8 -12 -2 0 14 12 26 19 19 2 -3 -1 -11 -7 -17z" /> 		<path d="M7506 2982 c-2 -4 4 -8 14 -8 10 0 16 4 14 8 -3 4 -9 8 -14 8 -5 0 -11 -4 -14 -8z" /> 		<path d="M12300 3430 c6 -12 21 -20 36 -20 21 0 23 2 12 14 -7 8 -14 10 -16 5 -6 -15 -22 -10 -22 6 0 8 -5 15 -10 15 -7 0 -7 -6 0 -20z" /> 		<path d="M12325 3390 c3 -5 11 -10 16 -10 6 0 7 5 4 10 -3 6 -11 10 -16 10 -6 0 -7 -4 -4 -10z" /> 		<path d="M16041 9514 c0 -11 3 -14 6 -6 3 7 2 16 -1 19 -3 4 -6 -2 -5 -13z" /> 		<path d="M17606 9343 c-6 -14 -5 -15 5 -6 7 7 10 15 7 18 -3 3 -9 -2 -12 -12z" /> 		<path d="M15204 7191 c7 -11 46 -35 46 -28 0 3 -12 12 -26 22 -15 9 -23 12 -20 6z" /> 		<path d="M15120 7026 c0 -8 4 -17 9 -20 5 -4 7 3 4 14 -6 23 -13 26 -13 6z" /> 		<path d="M15191 6917 c2 -1 12 -9 22 -16 15 -12 17 -12 11 3 -3 9 -13 16 -22 16 -8 0 -13 -1 -11 -3z" /> 		<path d="M3928 4563 c6 -2 18 -2 25 0 6 3 1 5 -13 5 -14 0 -19 -2 -12 -5z" /> 		<path d="M0 275 l0 -275 10000 0 10000 0 0 275 0 275 -10000 0 -10000 0 0 -275z" /> 	</g> </svg> 